<svg width="100%" viewBox="0 0 680 280" role="img" xmlns="http://www.w3.org/2000/svg">
<title>Lakshit — tech banner</title>
<desc>Dark space background with LAKSHIT centered and tech pills arranged around it</desc>

<rect width="680" height="280" fill="#0d1117"/>
<rect x="0" y="0" width="680" height="1" fill="#21262d"/>
<rect x="0" y="279" width="680" height="1" fill="#21262d"/>

<line x1="0" y1="70" x2="680" y2="70" stroke="#161b22" stroke-width="0.5"/>
<line x1="0" y1="140" x2="680" y2="140" stroke="#161b22" stroke-width="0.5"/>
<line x1="0" y1="210" x2="680" y2="210" stroke="#161b22" stroke-width="0.5"/>
<line x1="170" y1="0" x2="170" y2="280" stroke="#161b22" stroke-width="0.5"/>
<line x1="340" y1="0" x2="340" y2="280" stroke="#161b22" stroke-width="0.5"/>
<line x1="510" y1="0" x2="510" y2="280" stroke="#161b22" stroke-width="0.5"/>

<circle fill="#484f58" cx="42" cy="22" r="1"/>
<circle fill="#8b949e" cx="78" cy="55" r="1.2"/>
<circle fill="#484f58" cx="120" cy="18" r="0.8"/>
<circle fill="#8b949e" cx="160" cy="40" r="1"/>
<circle fill="#484f58" cx="200" cy="15" r="1.2"/>
<circle fill="#484f58" cx="240" cy="35" r="0.8"/>
<circle fill="#8b949e" cx="310" cy="20" r="1"/>
<circle fill="#484f58" cx="380" cy="12" r="1.2"/>
<circle fill="#8b949e" cx="430" cy="38" r="0.8"/>
<circle fill="#484f58" cx="490" cy="22" r="1"/>
<circle fill="#8b949e" cx="540" cy="50" r="1.2"/>
<circle fill="#484f58" cx="600" cy="18" r="0.8"/>
<circle fill="#8b949e" cx="648" cy="35" r="1"/>
<circle fill="#484f58" cx="30" cy="100" r="0.8"/>
<circle fill="#8b949e" cx="655" cy="110" r="1"/>
<circle fill="#484f58" cx="15" cy="160" r="1.2"/>
<circle fill="#8b949e" cx="665" cy="165" r="0.8"/>
<circle fill="#484f58" cx="25" cy="220" r="1"/>
<circle fill="#8b949e" cx="650" cy="215" r="1.2"/>
<circle fill="#484f58" cx="55" cy="258" r="0.8"/>
<circle fill="#8b949e" cx="610" cy="252" r="1"/>
<circle fill="#484f58" cx="100" cy="265" r="1.2"/>
<circle fill="#484f58" cx="580" cy="270" r="0.8"/>
<circle fill="#8b949e" cx="340" cy="268" r="1"/>
<circle fill="#484f58" cx="440" cy="262" r="1.2"/>
<circle fill="#8b949e" cx="180" cy="255" r="0.8"/>

<text font-family="'Courier New', monospace" font-size="52" font-weight="700" fill="#e6edf3" letter-spacing="10" x="340" y="158" text-anchor="middle">LAKSHIT</text>
<rect fill="#58a6ff" x="555" y="114" width="4" height="44" rx="1"/>
<rect x="220" y="168" width="240" height="1.5" fill="#21262d" rx="1"/>
<rect x="310" y="168" width="60" height="1.5" fill="#388bfd" rx="1"/>

<rect x="38" y="68" width="62" height="22" rx="11" fill="#161b22" stroke="#21262d" stroke-width="0.8"/>
<text font-family="'Courier New', monospace" font-size="11" font-weight="600" fill="#f78166" x="69" y="83" text-anchor="middle">Solidity</text>
<rect x="22" y="112" width="52" height="22" rx="11" fill="#161b22" stroke="#21262d" stroke-width="0.8"/>
<text font-family="'Courier New', monospace" font-size="11" font-weight="600" fill="#ff7b72" x="48" y="127" text-anchor="middle">Docker</text>
<rect x="44" y="152" width="42" height="22" rx="11" fill="#161b22" stroke="#21262d" stroke-width="0.8"/>
<text font-family="'Courier New', monospace" font-size="11" font-weight="600" fill="#ffa657" x="65" y="167" text-anchor="middle">AWS</text>
<rect x="28" y="192" width="58" height="22" rx="11" fill="#161b22" stroke="#21262d" stroke-width="0.8"/>
<text font-family="'Courier New', monospace" font-size="11" font-weight="600" fill="#79c0ff" x="57" y="207" text-anchor="middle">Next.js</text>
<rect x="44" y="232" width="56" height="22" rx="11" fill="#161b22" stroke="#21262d" stroke-width="0.8"/>
<text font-family="'Courier New', monospace" font-size="11" font-weight="600" fill="#56d364" x="72" y="247" text-anchor="middle">Python</text>

<rect x="592" y="68" width="56" height="22" rx="11" fill="#161b22" stroke="#21262d" stroke-width="0.8"/>
<text font-family="'Courier New', monospace" font-size="11" font-weight="600" fill="#79c0ff" x="620" y="83" text-anchor="middle">React</text>
<rect x="596" y="112" width="60" height="22" rx="11" fill="#161b22" stroke="#21262d" stroke-width="0.8"/>
<text font-family="'Courier New', monospace" font-size="11" font-weight="600" fill="#d2a8ff" x="626" y="127" text-anchor="middle">Hardhat</text>
<rect x="582" y="152" width="74" height="22" rx="11" fill="#161b22" stroke="#21262d" stroke-width="0.8"/>
<text font-family="'Courier New', monospace" font-size="11" font-weight="600" fill="#ffa657" x="619" y="167" text-anchor="middle">Terraform</text>
<rect x="586" y="192" width="74" height="22" rx="11" fill="#161b22" stroke="#21262d" stroke-width="0.8"/>
<text font-family="'Courier New', monospace" font-size="11" font-weight="600" fill="#56d364" x="623" y="207" text-anchor="middle">LangChain</text>
<rect x="594" y="232" width="60" height="22" rx="11" fill="#161b22" stroke="#21262d" stroke-width="0.8"/>
<text font-family="'Courier New', monospace" font-size="11" font-weight="600" fill="#ff7b72" x="624" y="247" text-anchor="middle">Kyverno</text>

<rect x="158" y="32" width="58" height="20" rx="10" fill="#161b22" stroke="#21262d" stroke-width="0.8"/>
<text font-family="'Courier New', monospace" font-size="11" font-weight="600" fill="#79c0ff" x="187" y="46" text-anchor="middle">Node.js</text>
<rect x="246" y="28" width="48" height="20" rx="10" fill="#161b22" stroke="#21262d" stroke-width="0.8"/>
<text font-family="'Courier New', monospace" font-size="11" font-weight="600" fill="#56d364" x="270" y="42" text-anchor="middle">Packer</text>
<rect x="384" y="28" width="48" height="20" rx="10" fill="#161b22" stroke="#21262d" stroke-width="0.8"/>
<text font-family="'Courier New', monospace" font-size="11" font-weight="600" fill="#d2a8ff" x="408" y="42" text-anchor="middle">Wagmi</text>
<rect x="454" y="32" width="70" height="20" rx="10" fill="#161b22" stroke="#21262d" stroke-width="0.8"/>
<text font-family="'Courier New', monospace" font-size="11" font-weight="600" fill="#ffa657" x="489" y="46" text-anchor="middle">TypeScript</text>

<rect x="148" y="228" width="58" height="20" rx="10" fill="#161b22" stroke="#21262d" stroke-width="0.8"/>
<text font-family="'Courier New', monospace" font-size="11" font-weight="600" fill="#f78166" x="177" y="242" text-anchor="middle">Foundry</text>
<rect x="228" y="232" width="66" height="20" rx="10" fill="#161b22" stroke="#21262d" stroke-width="0.8"/>
<text font-family="'Courier New', monospace" font-size="11" font-weight="600" fill="#56d364" x="261" y="246" text-anchor="middle">Supabase</text>
<rect x="384" y="234" width="46" height="20" rx="10" fill="#161b22" stroke="#21262d" stroke-width="0.8"/>
<text font-family="'Courier New', monospace" font-size="11" font-weight="600" fill="#79c0ff" x="407" y="248" text-anchor="middle">Svelte</text>
<rect x="452" y="228" width="40" height="20" rx="10" fill="#161b22" stroke="#21262d" stroke-width="0.8"/>
<text font-family="'Courier New', monospace" font-size="11" font-weight="600" fill="#d2a8ff" x="472" y="242" text-anchor="middle">Viem</text>

<text font-family="'Courier New', monospace" font-size="11" fill="#484f58" x="340" y="272" text-anchor="middle">software engineer · cloud · ai · web3</text>
</svg>
